HIERARCHY
ROOT Hips
{
	OFFSET -0.001795 -0.223333 0.028219
	CHANNELS 6 Xposition Yposition Zposition Zrotation Yrotation Xrotation 
	JOINT LeftUpLeg
	{
		OFFSET 0.069520 -0.091406 -0.006815
		CHANNELS 3 Zrotation Yrotation Xrotation
		JOINT LeftLeg
		{
			OFFSET 0.034277 -0.375199 -0.004496
			CHANNELS 3 Zrotation Yrotation Xrotation
			JOINT LeftFoot
			{
				OFFSET -0.013596 -0.397961 -0.043693
				CHANNELS 3 Zrotation Yrotation Xrotation
				JOINT LeftToe
				{
					OFFSET 0.026358 -0.055791 0.119288
					CHANNELS 3 Zrotation Yrotation Xrotation
					End Site
					{
						OFFSET 0.000000 0.000000 0.000000
					}
				}
			}
		}
	}
	JOINT RightUpLeg
	{
		OFFSET -0.067670 -0.090522 -0.004320
		CHANNELS 3 Zrotation Yrotation Xrotation
		JOINT RightLeg
		{
			OFFSET -0.038290 -0.382569 -0.008850
			CHANNELS 3 Zrotation Yrotation Xrotation
			JOINT RightFoot
			{
				OFFSET 0.015774 -0.398415 -0.042312
				CHANNELS 3 Zrotation Yrotation Xrotation
				JOINT RightToe
				{
					OFFSET -0.025372 -0.048144 0.123348
					CHANNELS 3 Zrotation Yrotation Xrotation
					End Site
					{
						OFFSET 0.000000 0.000000 0.000000
					}
				}
			}
		}
	}
	JOINT Spine
	{
		OFFSET -0.002533 0.108963 -0.026696
		CHANNELS 3 Zrotation Yrotation Xrotation
		JOINT Spine1
		{
			OFFSET 0.005487 0.135180 0.001092
			CHANNELS 3 Zrotation Yrotation Xrotation
			JOINT Spine2
			{
				OFFSET 0.001457 0.052922 0.025425
				CHANNELS 3 Zrotation Yrotation Xrotation
				JOINT Neck
				{
					OFFSET -0.002778 0.213870 -0.042857
					CHANNELS 3 Zrotation Yrotation Xrotation
					JOINT Head
					{
						OFFSET 0.005152 0.064970 0.051349
						CHANNELS 3 Zrotation Yrotation Xrotation
						End Site
						{
							OFFSET 0.000000 0.000000 0.000000
						}
					}
				}
				JOINT LeftShoulder
				{
					OFFSET 0.078845 0.121749 -0.034090
					CHANNELS 3 Zrotation Yrotation Xrotation
					JOINT LeftArm
					{
						OFFSET 0.090977 0.030469 -0.008868
						CHANNELS 3 Zrotation Yrotation Xrotation
						JOINT LeftForeArm
						{
							OFFSET 0.259612 -0.012772 -0.027456
							CHANNELS 3 Zrotation Yrotation Xrotation
							JOINT LeftHand
							{
								OFFSET 0.249234 0.008986 -0.001171
								CHANNELS 3 Zrotation Yrotation Xrotation
								End Site
								{
									OFFSET 0.000000 0.000000 0.000000
								}
							}
						}
					}
				}
				JOINT RightShoulder
				{
					OFFSET -0.081759 0.118833 -0.038615
					CHANNELS 3 Zrotation Yrotation Xrotation
					JOINT RightArm
					{
						OFFSET -0.096012 0.032551 -0.009143
						CHANNELS 3 Zrotation Yrotation Xrotation
						JOINT RightForeArm
						{
							OFFSET -0.253742 -0.013329 -0.021401
							CHANNELS 3 Zrotation Yrotation Xrotation
							JOINT RightHand
							{
								OFFSET -0.255298 0.007772 -0.005559
								CHANNELS 3 Zrotation Yrotation Xrotation
								End Site
								{
									OFFSET 0.000000 0.000000 0.000000
								}
							}
						}
					}
				}
			}
		}
	}
}
MOTION
Frames: 9
Frame Time: 0.050000
0.000000 0.941809 0.000000 0.133132 -7.960395 1.327417 5.487842 -0.068297 -1.860749 -2.905742 0.365381 1.665221 6.380684 14.100835 10.358515 0.000000 0.000000 0.000000 -6.007613 0.320438 -1.017463 3.291722 -0.253002 2.157571 -5.538788 -15.073288 7.113879 0.000000 0.000000 0.000000 8.459796 -0.507826 3.908617 -6.514834 2.054071 -24.435461 -0.589090 11.173318 29.341597 8.824149 -1.713815 -31.587913 0.000000 0.000000 0.000000 -16.663785 -8.739209 2.365627 -58.695196 -4.619190 -7.391957 -6.119148 -28.538045 2.797222 0.000000 0.000000 0.000000 22.207642 -3.987738 -1.871647 65.213805 5.225644 -6.285340 6.011358 30.145680 3.657583 0.000000 0.000000 0.000000 
-0.000351 0.940899 0.001538 -0.016874 -8.193342 1.613262 5.651695 -0.038695 -1.272575 -2.805521 0.354935 0.808993 6.689432 14.587429 9.841402 0.000000 0.000000 0.000000 -5.729443 0.322225 -1.177250 3.144972 -0.238114 1.993288 -6.277877 -16.552518 7.426562 0.000000 0.000000 0.000000 8.973631 -0.444622 3.162745 -6.838465 2.144133 -23.778656 -0.830237 11.573019 29.206079 7.588899 -0.850695 -32.886223 0.000000 0.000000 0.000000 -16.689087 -7.778972 1.806812 -58.882038 -4.783050 -7.313067 -5.928694 -28.723214 2.756610 0.000000 0.000000 0.000000 22.123252 -3.834586 -1.702403 66.533851 5.489537 -6.140422 5.037647 30.210289 3.457666 0.000000 0.000000 0.000000 
-0.000721 0.940938 0.002776 0.363951 -7.264760 1.482702 5.552037 -0.056894 -1.410241 -2.999605 0.374272 1.153280 6.512260 14.376374 10.398775 0.000000 0.000000 0.000000 -6.083395 0.313951 -0.961319 2.869251 -0.213682 2.192553 -6.620673 -17.218116 7.705850 0.000000 0.000000 0.000000 8.969060 -0.362117 2.442615 -7.376684 2.312527 -23.299331 -0.864802 10.896758 29.407402 6.940298 -0.489182 -33.436671 0.000000 0.000000 0.000000 -16.359839 -8.368203 2.156392 -59.013036 -5.299429 -7.122941 -6.526557 -27.728318 2.805286 0.000000 0.000000 0.000000 22.695073 -2.985232 -1.229435 65.551968 5.864778 -5.980271 5.003713 28.920513 3.214927 0.000000 0.000000 0.000000 
-0.001115 0.940312 0.003839 0.532853 -7.329233 1.627726 5.237232 -0.050417 -1.132669 -2.834862 0.354892 0.440866 6.587069 14.509147 10.646567 0.000000 0.000000 0.000000 -5.985010 0.318337 -1.083838 2.817186 -0.209643 2.076288 -7.386816 -18.678270 7.919104 0.000000 0.000000 0.000000 9.045862 -0.338563 2.200144 -7.534527 2.334839 -23.868181 -0.714591 11.608308 30.233436 6.989718 -0.366079 -33.936994 0.000000 0.000000 0.000000 -16.408724 -8.765152 2.225145 -59.734578 -5.192881 -7.331208 -5.719813 -28.768751 2.701831 0.000000 0.000000 0.000000 22.912377 -3.431044 -1.269319 66.141477 6.379579 -5.796364 4.801348 29.286532 3.309347 0.000000 0.000000 0.000000 
-0.001482 0.940866 0.004519 0.589176 -6.604002 1.551601 5.032706 -0.065961 -1.239207 -2.367572 0.289659 0.408163 6.289273 14.111566 11.370402 0.000000 0.000000 0.000000 -6.016793 0.291620 -0.699504 2.675228 -0.205551 1.818520 -7.548255 -18.997522 8.301722 0.000000 0.000000 0.000000 8.680626 -0.313718 2.036814 -6.948061 2.227870 -22.799402 -1.152628 11.525507 29.207924 6.802198 -0.226314 -33.572399 0.000000 0.000000 0.000000 -16.452705 -8.489861 1.938697 -59.866611 -5.325409 -7.166389 -6.615921 -29.047046 2.910841 0.000000 0.000000 0.000000 23.082597 -3.203654 -1.040245 66.052070 6.382170 -5.692184 4.643295 28.739127 3.182120 0.000000 0.000000 0.000000 
-0.001603 0.941038 0.004722 0.522288 -6.302270 1.768977 5.072151 -0.072549 -1.256778 -2.375506 0.291653 0.106633 6.289935 14.123572 11.159594 0.000000 0.000000 0.000000 -5.843505 0.287167 -0.798546 2.406916 -0.178942 1.840192 -7.472613 -18.857987 8.330742 0.000000 0.000000 0.000000 8.562112 -0.319646 2.041358 -6.810127 2.182830 -23.246265 -1.001330 11.578274 29.489408 6.884716 -0.228885 -33.618871 0.000000 0.000000 0.000000 -16.249489 -8.534581 1.925395 -60.586672 -5.431129 -7.243073 -6.989691 -29.340918 3.040148 0.000000 0.000000 0.000000 22.948254 -3.110650 -0.897729 66.601851 6.422463 -5.684896 4.059713 28.431787 3.020472 0.000000 0.000000 0.000000 
-0.001355 0.941271 0.004353 0.528879 -6.222331 1.912309 4.964382 -0.088481 -1.493346 -2.362527 0.289923 0.060814 6.470924 14.447115 11.549717 0.000000 0.000000 0.000000 -5.651338 0.289319 -0.993580 2.193084 -0.156005 1.868180 -7.541286 -18.995383 8.434652 0.000000 0.000000 0.000000 8.550657 -0.332949 2.120769 -6.823292 2.188202 -23.178000 -1.002786 11.664583 29.453397 6.979100 -0.227244 -33.862498 0.000000 0.000000 0.000000 -16.035347 -8.279939 1.779172 -61.135419 -5.597382 -7.236856 -7.922048 -29.859372 3.343586 0.000000 0.000000 0.000000 23.017773 -3.149789 -0.880955 66.918405 6.298471 -5.752709 4.289310 28.396946 3.081203 0.000000 0.000000 0.000000 
-0.000768 0.941446 0.003373 0.476559 -6.433737 2.165659 4.791883 -0.110227 -1.854261 -2.117877 0.260426 0.042422 6.703284 14.804495 11.574426 0.000000 0.000000 0.000000 -5.357405 0.312095 -1.570349 1.917185 -0.113756 2.295593 -7.343718 -18.588581 7.890045 0.000000 0.000000 0.000000 8.436740 -0.319623 1.977188 -6.592994 2.126076 -23.101139 -0.959248 11.631953 29.611702 6.755621 -0.119082 -34.116156 0.000000 0.000000 0.000000 -16.061904 -8.236916 1.806399 -61.549848 -5.627259 -7.288968 -9.021797 -30.715173 3.775186 0.000000 0.000000 0.000000 22.846247 -2.925480 -0.789914 67.514880 6.515530 -5.633895 4.020680 28.460405 3.025323 0.000000 0.000000 0.000000 
0.000125 0.941695 0.001802 0.345408 -6.882350 2.384021 4.745794 -0.120174 -2.075889 -2.029426 0.251482 0.028692 7.017121 15.277797 11.644358 0.000000 0.000000 0.000000 -5.226372 0.333470 -1.929673 1.918138 -0.114597 2.171756 -7.327693 -18.576820 7.917384 0.000000 0.000000 0.000000 8.557239 -0.341583 2.116155 -6.561248 2.103917 -23.286352 -0.884574 11.662341 29.779449 6.784287 -0.144292 -34.448862 0.000000 0.000000 0.000000 -15.863343 -8.306406 1.931625 -62.231748 -5.814723 -7.300903 -9.872323 -31.522757 4.164355 0.000000 0.000000 0.000000 22.723701 -2.983171 -0.905523 67.863981 6.461376 -5.675817 4.260206 28.607225 3.095654 0.000000 0.000000 0.000000 
